<?xml version="1.0" encoding="UTF-8" ?>
<!DOCTYPE svg PUBLIC "-//W3C//DTD SVG 1.1//EN" "http://www.w3.org/Graphics/SVG/1.1/DTD/svg11.dtd">
<svg width="375pt" height="438pt" viewBox="0 0 375 438" version="1.1" xmlns="http://www.w3.org/2000/svg">
<g id="#000000ff">
<path fill="#000000" opacity="1.00" d=" M 129.90 18.88 C 164.37 4.00 202.81 -1.49 240.07 3.09 C 277.30 7.56 313.30 22.06 343.12 44.82 C 353.98 52.95 363.83 62.34 373.03 72.29 C 322.13 119.74 271.30 167.24 220.46 214.73 C 266.64 266.81 313.09 318.66 359.16 370.83 C 344.03 384.33 327.43 396.31 309.15 405.17 C 259.75 430.05 200.52 434.17 148.02 416.92 C 115.71 406.45 86.05 388.00 62.31 363.72 C 39.18 340.24 21.54 311.35 11.47 279.96 C -0.25 243.85 -2.00 204.58 6.40 167.56 C 14.60 130.75 32.90 96.24 58.81 68.83 C 78.76 47.56 103.10 30.38 129.90 18.88 M 180.94 13.09 C 147.38 18.53 115.27 32.61 88.54 53.61 C 63.88 72.87 43.62 97.79 30.13 126.04 C 13.14 161.22 6.69 201.36 11.62 240.10 C 16.45 279.13 32.97 316.61 58.54 346.50 C 74.51 365.41 93.99 381.34 115.66 393.30 C 144.16 408.98 176.44 417.75 208.98 418.51 C 258.77 420.05 308.84 402.38 346.64 369.93 C 300.49 317.96 254.25 266.09 208.10 214.13 C 258.90 166.76 309.63 119.30 360.44 71.92 C 340.87 51.72 316.99 35.74 290.91 25.22 C 256.29 11.21 217.78 6.97 180.94 13.09 Z" />
<path fill="#000000" opacity="1.00" d=" M 212.46 107.72 C 219.16 105.90 226.67 107.45 232.03 111.88 C 239.03 117.46 242.14 127.60 238.88 136.03 C 235.68 145.70 225.09 152.10 215.04 150.46 C 205.01 149.20 196.65 140.21 196.27 130.08 C 195.49 120.02 202.68 110.13 212.46 107.72 Z" />
</g>
<g id="#f2f000ff">
<path fill="#f2f000" opacity="1.00" d=" M 180.94 13.09 C 217.78 6.97 256.29 11.21 290.91 25.22 C 316.99 35.74 340.87 51.72 360.44 71.92 C 309.63 119.30 258.90 166.76 208.10 214.13 C 254.25 266.09 300.49 317.96 346.64 369.93 C 308.84 402.38 258.77 420.05 208.98 418.51 C 176.44 417.75 144.16 408.98 115.66 393.30 C 93.99 381.34 74.51 365.41 58.54 346.50 C 32.97 316.61 16.45 279.13 11.62 240.10 C 6.69 201.36 13.14 161.22 30.13 126.04 C 43.62 97.79 63.88 72.87 88.54 53.61 C 115.27 32.61 147.38 18.53 180.94 13.09 M 212.46 107.72 C 202.68 110.13 195.49 120.02 196.27 130.08 C 196.65 140.21 205.01 149.20 215.04 150.46 C 225.09 152.10 235.68 145.70 238.88 136.03 C 242.14 127.60 239.03 117.46 232.03 111.88 C 226.67 107.45 219.16 105.90 212.46 107.72 Z" />
</g>
</svg>
